<?xml version="1.0" encoding="UTF-8" standalone="no"?>
<!-- Created with Inkscape (http://www.inkscape.org/) -->

<svg
   xmlns:dc="http://purl.org/dc/elements/1.1/"
   xmlns:cc="http://creativecommons.org/ns#"
   xmlns:rdf="http://www.w3.org/1999/02/22-rdf-syntax-ns#"
   xmlns:svg="http://www.w3.org/2000/svg"
   xmlns="http://www.w3.org/2000/svg"
   xmlns:sodipodi="http://sodipodi.sourceforge.net/DTD/sodipodi-0.dtd"
   xmlns:inkscape="http://www.inkscape.org/namespaces/inkscape"
   version="1.1"
   id="svg2"
   width="20"
   height="54"
   viewBox="0 0 20 54"
   sodipodi:docname="turret.svg"
   inkscape:version="0.92.4 (5da689c313, 2019-01-14)">
  <metadata
     id="metadata8">
    <rdf:RDF>
      <cc:Work
         rdf:about="">
        <dc:format>image/svg+xml</dc:format>
        <dc:type
           rdf:resource="http://purl.org/dc/dcmitype/StillImage" />
        <dc:title></dc:title>
      </cc:Work>
    </rdf:RDF>
  </metadata>
  <defs
     id="defs6" />
  <sodipodi:namedview
     pagecolor="#ffffff"
     bordercolor="#666666"
     borderopacity="1"
     objecttolerance="10"
     gridtolerance="10"
     guidetolerance="10"
     inkscape:pageopacity="0"
     inkscape:pageshadow="2"
     inkscape:window-width="1920"
     inkscape:window-height="1015"
     id="namedview4"
     showgrid="false"
     inkscape:zoom="8.7407407"
     inkscape:cx="3.931221"
     inkscape:cy="25.744835"
     inkscape:window-x="1920"
     inkscape:window-y="0"
     inkscape:window-maximized="1"
     inkscape:current-layer="svg2" />
  <path
     inkscape:connector-curvature="0"
     id="path44"
     d="M 10,40 H 0 V 31.056536 22.113072 L 3,20.340929 6,18.568785 V 15.784392 13 H 7.139291 8.2785819 L 7.682696,7.9686758 7.0868101,2.9373516 7.6503938,1.4686758 8.2139776,0 H 10 11.786022 L 12.349606,1.4686758 12.91319,2.9373516 12.317304,7.9686758 11.721418,13 H 12.860709 14 v 2.784392 2.784393 l 3,1.772144 3,1.772143 V 31.056536 40 Z m 0,-20 h 1 V 17 14 H 10 9 v 3 3 z M 10,6 h 1.333333 L 10.666667,5.3333333 10,4.6666667 9.3333333,5.3333333 8.6666667,6 Z m 0,-2 h 1.333333 L 10.666667,3.3333333 10,2.6666667 9.3333333,3.3333333 8.6666667,4 Z m 0,-2 h 1.333333 L 10.666667,1.3333333 10,0.66666667 9.3333333,1.3333333 8.6666667,2 Z"
     fill="#989898" />
  <path
     inkscape:connector-curvature="0"
     id="path42"
     d="M 10.233101,39.787749 0.96620204,40.075499 0.43050606,38.679498 -0.10518993,37.283496 0.27687215,29.526935 0.65893423,21.770374 2.3373869,20.831065 4.0158397,19.891755 4.800484,20.376692 5.5851283,20.861629 5.8224329,17.747288 6.0597374,14.632947 7.0987946,13.38096 8.1378518,12.128972 7.9372273,7.8144862 7.7366027,3.5 7.8683014,1.75 8,0 h 1.8833686 1.8833684 l 0.521996,1.9961153 0.521996,1.9961154 -0.55061,4.1051012 -0.550609,4.1051011 1.099138,0.679305 1.099139,0.679305 0.246142,3.654867 0.246142,3.654866 0.779298,-0.481632 0.779298,-0.481633 1.777954,0.951533 1.777954,0.951532 -0.0073,8.844712 L 19.5,39.5 Z M 10,39 h 8.657747 l 0.02148,-5.75 0.02148,-5.75 -0.394932,4.5 -0.394937,4.5 H 10 2.089162 L 1.6942253,32 1.2992887,27.5 1.3207708,33.25 1.3422528,39 Z M 2.381966,23 h 0.5 L 3.5,22 4.118034,21 h -0.5 -0.5 L 2.5,22 1.881966,23 Z m 15.177051,0 H 18 V 22.559017 22.118034 L 16.845492,21.404508 15.690983,20.690983 16.404508,21.845492 17.118034,23 Z M 10,20 h 2 V 17 14 H 10 8 v 3 3 z m 0,-7 h 1 V 10 7 H 10 9 v 3 3 z m 0,-7 h 1 V 3.5 1 H 10 9 V 3.5 6 Z"
     fill="#707070" />
  <path
     inkscape:connector-curvature="0"
     id="path40"
     d="M 10,39.639504 H 0.5 l 4.75,-0.374543 4.75,-0.374543 4.75,0.374543 4.75,0.374543 z M 1.9982282,37.25 0.59645632,38.5 1.6743804,37 l 1.077924,-1.5 -0.7337646,-5 -0.7337647,-5 -0.81232629,-1.914045 -0.8123263,-1.914045 1.14927202,0.710289 1.14927197,0.71029 2.048675,-1.096418 L 6.0560164,20.899653 5.4689912,19.949827 4.881966,19 H 5.5067245 6.1314829 L 7.9932993,19.996414 9.8551156,20.992828 11.427558,20.389425 13,19.786022 V 16.893011 14 H 12 11 V 6.8333333 -0.33333333 l 0.604169,0.60416937 0.60417,0.60416937 -0.06871,5.75275529 -0.06871,5.7527553 0.934676,1.126216 0.934676,1.126215 0.248824,3.265524 0.248824,3.265524 1.801711,0.964247 1.801711,0.964247 1.149272,-0.71029 1.149272,-0.710289 -0.812326,1.914045 -0.812326,1.914045 -0.733765,5 -0.733764,5 1.077924,1.5 1.077924,1.5 -1.40178,-1.25 L 16.6,36 H 10 3.4 Z m -1.3359475,-3 -0.50438596,1.25 V 33 30.5 L 0.6622807,31.75 1.1666667,33 Z m 19.0000003,0 -0.504386,1.25 V 33 30.5 l 0.504386,1.25 0.504386,1.25 z M 2.381966,22 h -0.5 L 2.5,21 3.118034,20 h 0.5 0.5 L 3.5,21 2.881966,22 Z m 15.177051,0 H 17.118034 L 16.404508,20.845492 15.690983,19.690983 16.845492,20.404508 18,21.118034 V 21.559017 22 Z M 8.25,14.002253 7.5,14.004506 7.8320591,7.0022528 8.1641183,0 8.8320591,-5.9811419e-4 9.5,-0.00119623 9.3223337,3.7494019 9.1446674,7.5 9.0723337,10.75 9,14 8.25,14.0023 Z"
     fill="#2e2e8c"
    class="dynamic-color"/>
  <path
     inkscape:connector-curvature="0"
     id="path38"
     d="M 10,39.639504 H 0.5 l 4.75,-0.374543 4.75,-0.374543 4.75,0.374543 4.75,0.374543 z M 1.9982282,37.25 0.59645632,38.5 1.6743804,37 2.7523044,35.5 2.0185398,30.5 1.2847751,25.5 0.53104696,23.738659 -0.2226812,21.977319 1.5527043,22.658598 3.3280898,23.339877 2.647733,22.239037 1.9673762,21.138197 3.1381966,20.41459 4.309017,19.690983 3.5153128,20.975223 2.7216086,22.259464 4.1108043,21.754732 5.5,21.25 5.25,20.125 5,19 H 5.4182125 5.8364251 L 7.4749405,19.628757 9.113456,20.257515 5.306728,22.597548 1.5,24.937581 h 8.5 8.5 l -4,-2.463667 -4,-2.463667 1.25,-0.0051 L 13,20 V 17 14 H 12 11 V 6.8333333 -0.33333333 l 0.604169,0.60416937 0.60417,0.60416937 -0.06871,5.75275529 -0.06871,5.7527553 0.880597,1.061055 0.880598,1.061055 0.39223,3.434781 0.39223,3.434782 1.330913,0.443637 1.330912,0.443638 -0.793704,-1.284241 -0.793704,-1.28424 1.17082,0.723607 1.170821,0.723607 -0.680357,1.10084 -0.680357,1.10084 1.775386,-0.681279 1.775385,-0.681279 -0.753728,1.76134 -0.753728,1.761341 -0.733765,5 -0.733764,5 1.077924,1.5 1.077924,1.5 -1.40178,-1.25 L 16.6,36 H 10 3.4 Z m -1.3359475,-3 -0.50438596,1.25 V 33 30.5 L 0.6622807,31.75 1.1666667,33 Z m 19.0000003,0 -0.504386,1.25 V 33 30.5 l 0.504386,1.25 0.504386,1.25 z M 8.25,14.002253 7.5,14.004506 7.8320591,7.0022528 8.1641183,0 8.8320591,-5.9811419e-4 9.5,-0.00119623 9.3223337,3.7494019 9.1446674,7.5 9.0723337,10.75 9,14 8.25,14.0023 Z"
     fill="#4c4c4c" />
  <path
     inkscape:connector-curvature="0"
     id="path36"
     d="M 1.5,40 H 1 V 39.5 39 H 1.5 2 v 0.5 0.5 z m 17,0 H 18 V 39.5 39 H 18.5 19 V 39.5 40 Z M 1.9982282,37.25 0.59645632,38.5 1.7722885,36.928792 2.9481207,35.357584 2.3347694,30.178792 1.7214181,25 H 10 18.278582 l -0.613351,5.178792 -0.613352,5.178792 1.175832,1.571208 L 19.403544,38.5 18.001772,37.25 16.6,36 H 10 3.4 Z M 0.5,24 H 0 V 23.5 23 H 0.5 1 V 23.5 24 Z M 2.7857334,23.977764 2.0714668,24 4.2857334,21.685492 6.5,19.370983 7.386032,19.828581 8.2720641,20.286179 5.886032,22.120854 3.5,23.955528 Z m 14.4285336,0 L 16.5,23.955528 14.113968,22.120854 11.727936,20.286179 12.613968,19.828581 13.5,19.370983 15.714267,21.685492 17.928533,24 Z M 19.5,24 H 19 V 23.5 23 H 19.5 20 V 23.5 24 Z M 8.2989015,13.101098 7.4521186,13.947881 7.9511482,9.7239407 8.4501779,5.5 8.7979312,8.8771577 9.1456845,12.254315 Z M 12.245041,14 H 11.93723 L 11.394042,12.584473 10.850853,11.168945 11.210468,8.3344727 11.570082,5.5 12.061467,9.75 12.552852,14 Z M 8.5,1 H 8 V 0.5 0 H 8.5 9 V 0.5 1 Z m 3,0 H 11 V 0.5 0 H 11.5 12 V 0.5 1 Z"
     fill="#252571"
class="dynamic-color"/>
  <path
     inkscape:connector-curvature="0"
     id="path34"
     d="M 1.5,40 H 1 V 39.5 39 H 1.5 2 v 0.5 0.5 z m 17,0 H 18 V 39.5 39 H 18.5 19 V 39.5 40 Z M 1.9982282,37.25 0.59645632,38.5 1.7991652,36.896408 3.0018741,35.292816 2.6203957,30.896408 2.2389172,26.5 2.6890096,28.25 3.1391019,30 H 10 16.860898 l 0.450092,-1.75 0.450093,-1.75 -0.381479,4.396408 -0.381478,4.396408 1.202709,1.603592 L 19.403544,38.5 18.001772,37.25 16.6,36 H 10 3.4 Z M 0.5,24 H 0 V 23.5 23 H 0.5 1 v 0.5 0.5 z m 2,0 H 2 V 23.5 23 H 2.5 3 v 0.5 0.5 z m 15,0 H 17 V 23.5 23 h 0.5 0.5 v 0.5 0.5 z m 2,0 H 19 V 23.5 23 H 19.5 20 V 23.5 24 Z M 5.6853166,21.960504 3.5,23.321311 4.9670323,21.410655 6.4340647,19.5 6.6168968,19.183469 6.799729,18.866938 l 0.5354521,0.866379 0.5354522,0.86638 z M 15.758474,22.968197 15.5,22.936393 l -1.809841,-1.372196 -1.809841,-1.372196 0.85969,-0.531317 0.859689,-0.531317 1.208626,1.935316 L 16.016948,23 Z M 8.2989015,13.101098 7.4521186,13.947881 7.9511482,9.7239407 8.4501779,5.5 8.7979312,8.8771577 9.1456845,12.254315 Z M 12.245041,14 H 11.93723 L 11.394042,12.584473 10.850853,11.168945 11.210468,8.3344727 11.570082,5.5 12.061467,9.75 12.552852,14 Z M 8.5,1 H 8 V 0.5 0 H 8.5 9 V 0.5 1 Z m 3,0 H 11 V 0.5 0 H 11.5 12 V 0.5 1 Z"
     fill="#19194f"
    class="dynamic-color"/>
  <path
     inkscape:connector-curvature="0"
     id="path32"
     d="M 1.5,40 H 1 V 39.5 39 H 1.5 2 v 0.5 0.5 z m 17,0 H 18 V 39.5 39 H 18.5 19 V 39.5 40 Z M 2.0823888,37.25 0.76477755,38.5 1.966808,36.5 3.1688384,34.5 H 10 16.831162 l 1.20203,2 1.20203,2 L 17.917611,37.25 16.6,36 H 10 3.4 Z M 2.6041667,31.729167 2,32.333333 2.0789474,30.416667 2.1578947,28.5 2.683114,29.8125 3.2083333,31.125 Z m 15.0000003,0 L 17,32.333333 17.078947,30.416667 17.157895,28.5 l 0.525219,1.3125 0.525219,1.3125 z M 0.5,24 H 0 V 23.5 23 H 0.5 1 v 0.5 0.5 z m 2,0 H 2 V 23.5 23 H 2.5 3 v 0.5 0.5 z m 15,0 H 17 V 23.5 23 h 0.5 0.5 v 0.5 0.5 z m 2,0 H 19 V 23.5 23 H 19.5 20 V 23.5 24 Z M 6.5509275,21.342084 5.101855,21.898145 5.6557123,20.454816 6.2095696,19.011487 7.1047848,19.564761 8,20.118034 v 0.333994 0.333994 z M 14.718615,21.984687 14.5,21.969374 13.143237,21.109687 11.786475,20.25 12.788452,19.630744 13.79043,19.011487 14.36383,20.505744 14.93723,22 Z M 8.2989015,13.101098 7.4521186,13.947881 7.9511482,9.7239407 8.4501779,5.5 8.7979312,8.8771577 9.1456845,12.254315 Z M 12.245041,14 H 11.93723 L 11.394042,12.584473 10.850853,11.168945 11.210468,8.3344727 11.570082,5.5 12.061467,9.75 12.552852,14 Z M 8.5,1 H 8 V 0.5 0 H 8.5 9 V 0.5 1 Z m 3,0 H 11 V 0.5 0 H 11.5 12 V 0.5 1 Z"
     fill="#27272f"
    class="dynamic-color"/>
</svg>
