<?xml version="1.0" encoding="UTF-8" standalone="no"?>
<!-- Created with Inkscape (http://www.inkscape.org/) -->

<svg
   xmlns:dc="http://purl.org/dc/elements/1.1/"
   xmlns:cc="http://creativecommons.org/ns#"
   xmlns:rdf="http://www.w3.org/1999/02/22-rdf-syntax-ns#"
   xmlns:svg="http://www.w3.org/2000/svg"
   xmlns="http://www.w3.org/2000/svg"
   xmlns:sodipodi="http://sodipodi.sourceforge.net/DTD/sodipodi-0.dtd"
   xmlns:inkscape="http://www.inkscape.org/namespaces/inkscape"
   version="1.1"
   id="svg2"
   width="36"
   height="38"
   viewBox="0 0 36 38"
   sodipodi:docname="body2.svg"
   inkscape:version="0.92.4 (5da689c313, 2019-01-14)">
  <metadata
     id="metadata8">
    <rdf:RDF>
      <cc:Work
         rdf:about="">
        <dc:format>image/svg+xml</dc:format>
        <dc:type
           rdf:resource="http://purl.org/dc/dcmitype/StillImage" />
        <dc:title />
      </cc:Work>
    </rdf:RDF>
  </metadata>
  <defs
     id="defs6" />
  <sodipodi:namedview
     pagecolor="#ffffff"
     bordercolor="#666666"
     borderopacity="1"
     objecttolerance="10"
     gridtolerance="10"
     guidetolerance="10"
     inkscape:pageopacity="0"
     inkscape:pageshadow="2"
     inkscape:window-width="1920"
     inkscape:window-height="1015"
     id="namedview4"
     showgrid="false"
     inkscape:zoom="17.566021"
     inkscape:cx="6.5588021"
     inkscape:cy="18.185674"
     inkscape:window-x="0"
     inkscape:window-y="0"
     inkscape:window-maximized="1"
     inkscape:current-layer="svg2" />
  <path
     inkscape:connector-curvature="0"
     id="border3"
     d="M 3.03e-6,19 V 4.9906259e-7 h 17.99999997 18 V 19 38 h -18 H 3.03e-6 Z"
     fill="#e4e4e4"
     inkscape:label="#path3731" />
  <path
     inkscape:connector-curvature="0"
     id="border2"
     d="M 1.1903964,35.674114 1.500003,33.5 l 2.25,-0.319551 2.25,-0.319551 V 30.930449 29 h -2.5 -2.5 v -4 -4 h 2.5 2.5 v -2 -2 h -2.5 -2.5 V 12.5 8.0000005 h 2.5 2.5 v -2 -2 h -2.5 -2.5 V 2.2073176 0.41463465 h 17 17 V 2.2073176 4.0000005 h -2.5 -2.5 v 2 2 h 2.5 2.5 V 12.5 17 h -2.5 -2.5 v 2 2 h 2.5 2.5 v 4 4 h -2.5 -2.5 v 1.930449 1.930449 l 2.25,0.319551 2.25,0.319551 0.30597,2.146363 0.30597,2.146363 -17.115577,0.02775 -17.11557613,0.02775 0.30960653,-2.174114 z"
     fill="#a0a0a0"
     inkscape:label="#path3729" />
  <path
     inkscape:connector-curvature="0"
     id="path3727"
     d="M 2.000003,36.391892 V 35 h 2 2 V 31.5 28 H 4.1069918 2.2139806 L 1.6037475,26.409758 0.99351437,24.819516 1.5557757,23.909758 2.118037,23 H 4.05902 6.000003 V 19 15 H 4.1069918 2.2139806 L 1.6037475,13.409758 0.99351437,11.819516 1.5557757,10.909758 2.118037,10 H 4.05902 6.000003 v -3.9999995 -4 H 4.05902 2.118037 l -0.618034,-1 L 0.88196904,4.9906259e-7 H 5.000003 9.118037 L 8.6545115,0.7500005 l -0.4635255,0.75 h 9.809017 9.809017 l -0.463525,-0.75 L 26.881969,4.9906259e-7 h 4.118034 4.118034 L 34.500003,1.0000005 l -0.618034,1 h -1.940983 -1.940983 v 4 V 10 h 1.940983 1.940983 l 0.562261,0.909758 0.562262,0.909758 -0.610233,1.590242 L 33.786025,15 h -1.893011 -1.893011 v 4 4 h 1.940983 1.940983 l 0.562261,0.909758 0.562262,0.909758 -0.610233,1.590242 L 33.786025,28 h -1.893011 -1.893011 v 3.5 3.5 h 2 2 v 1.391892 1.391892 h -16 -16 z m 26,-30.8918915 v -0.5 h -0.5 -0.5 v 0.5 0.5 h 0.5 0.5 z"
     fill="#6565b2"
    class="dynamic-color"/>
  <path
     inkscape:connector-curvature="0"
     id="border1"
     d="M 2.000003,36.391892 V 35 h 2 2 V 31.5 28 H 4.1069918 2.2139806 L 1.6037475,26.409758 0.99351437,24.819516 1.5557757,23.909758 2.118037,23 H 4.05902 6.000003 V 19 15 H 4.1069918 2.2139806 L 1.6037475,13.409758 0.99351437,11.819516 1.5557757,10.909758 2.118037,10 H 4.05902 6.000003 v -3.9999995 -4 H 4.05902 2.118037 l -0.618034,-1 L 0.88196904,4.9906259e-7 H 4.7677932 8.6536173 L 8.2133108,3.0000005 l -0.4403065,3 h 2.6134997 2.613499 l -0.116001,-2.25 -0.116002,-2.25 -0.457323,1.75 -0.457322,1.75 H 10.426679 9.000003 V 3.6166319 2.2332632 l 2.25,-0.6029767 2.25,-0.6029766 h 4.5 4.5 l 2.25,0.6029766 2.25,0.6029767 v 1.3833687 1.3833686 h -1.426676 -1.426676 l -0.457322,-1.75 -0.457323,-1.75 -0.116002,2.25 -0.116001,2.25 h 2.613499 2.6135 l -0.440307,-3 L 27.346389,4.9906259e-7 h 3.885824 3.885824 L 34.500003,1.0000005 l -0.618034,1 h -1.940983 -1.940983 v 4 V 10 h 1.940983 1.940983 l 0.562261,0.909758 0.562262,0.909758 -0.610233,1.590242 L 33.786025,15 h -1.893011 -1.893011 v 4 4 h 1.940983 1.940983 l 0.562261,0.909758 0.562262,0.909758 -0.610233,1.590242 L 33.786025,28 h -1.893011 -1.893011 v 3.5 3.5 h 2 2 v 1.391892 1.391892 h -16 -16 z"
     fill="#626262"
     inkscape:label="#path3725" />
  <path
     inkscape:connector-curvature="0"
     id="path3723"
     d="m 9.500003,37.295325 -3,-0.3846 V 18.955635 1.0005448 l 0.75,-2.721e-4 0.75,-2.722e-4 v 2.5 2.5 h 2.5 2.5 v -2.5 -2.5 l 4.75,0.013655 4.75,0.013655 2.25,0.6029766 2.25,0.6029767 v 1.3833681 1.3833686 h -1.426676 -1.426676 l -0.457322,-1.75 -0.457323,-1.75 -0.116002,2.25 -0.116001,2.25 h 2.5 2.5 v -2.5 -2.5 l 0.75,2.722e-4 0.75,2.721e-4 V 18.898691 36.796839 L 25.110432,37.398419 20.72086,38 16.610432,37.839963 12.500003,37.679926 Z m -0.5,-33.7953245 v -1.5 h 1.5 1.5 v 1.5 1.5 h -1.5 -1.5 z"
     fill="#2f2f90"
    class="dynamic-color"/>
  <path
     inkscape:connector-curvature="0"
     id="dynamic-color"
     d="m 9.500003,37.295325 -3,-0.3846 V 18.955635 1.0005448 l 0.75,-2.721e-4 0.75,-2.722e-4 v 3.5 3.5 h 1 1 V 10 12 h 8 8 V 10.5 9.0000005 h 1 1 v -4 -4 l 0.75,2.722e-4 0.75,2.721e-4 V 18.898691 36.796839 L 25.110432,37.398419 20.72086,38 16.610432,37.839963 12.500003,37.679926 Z m 11.267909,-1.009851 -2.732091,-0.414862 -3.267909,0.404657 -3.267909,0.404657 6,0.0102 6,0.0102 -2.732091,-0.414862 z M 27.66667,10.333333 27.000003,9.6666672 V 11 12.333333 L 27.66667,11.666667 28.333336,11 Z M 9.000003,9.5000005 v -0.5 h -0.5 -0.5 v 0.5 V 10 h 0.5 0.5 z m 6.767909,-8.2247313 3.267909,-0.40465709 2.732091,0.41486209 2.732091,0.4148621 -6,-0.010205 -6,-0.010205 z"
     fill="#242470"
  class="dynamic-color"/>
  <path
     inkscape:connector-curvature="0"
     id="path3719"
     d="m 23.728666,36.630016 0.588371,-0.952005 -8.908517,0.631951 -8.908517,0.631952 V 23.5545 10.167087 l 0.75,-0.7502097 0.75,-0.7502101 L 8.1184241,14.583333 8.2368451,20.5 8.1184241,21.25 8.000003,22 h 10 10 v -4.416667 -4.416666 l -1.25,-0.504386 -1.25,-0.504386 1.25,-0.07895 1.25,-0.07894 V 10.333333 8.6666672 l 0.75,0.7502101 0.75,0.7502097 v 13.335842 13.335842 l -3.179854,0.371625 -3.179854,0.371624 z M 9.000003,11.5 V 11 h 0.5 0.5 v 0.5 0.5 h -0.5 -0.5 z M 6.3333363,1.3333338 7.000003,0.66666717 7.6666697,1.3333338 8.3333363,2.0000005 H 7.000003 5.6666697 Z m 9.4345757,-0.058065 3.267909,-0.40465709 2.732091,0.41486209 2.732091,0.4148621 -6,-0.010205 -6,-0.010205 z m 12.565424,0.058065 0.666667,-0.66666663 0.666667,0.66666663 0.666666,0.6666667 H 29.000003 27.66667 Z"
     fill="#19194f"
  class="dynamic-color"/>
  <path
     inkscape:connector-curvature="0"
     id="path3717"
     d="M 6.7487946,30.75 6.2572045,24.5 7.1286037,23.55 8.000003,22.6 v 4.2 4.2 h 1.559017 1.559017 l -0.723062,-1.169939 -0.7230618,-1.169938 1.6013948,0.614512 1.601395,0.614513 0.446649,-1.694574 L 13.768,26.5 13.884002,28.75 14.000003,31 h 4.5 4.5 l 0.09968,-2.75 0.09968,-2.75 0.694165,2.494749 0.694166,2.494749 1.706154,0.328575 1.706155,0.328575 V 27.573324 24 h 1.116631 1.116632 l -0.602977,2.25 -0.602977,2.25 -0.01341,4 -0.01342,4 L 19.976165,36.294136 10.951846,36.088272 9.8214162,35.389627 8.690986,34.690983 9.4045115,35.845492 10.118037,37 H 8.6792109 7.2403848 Z M 25.000003,29 V 27.666667 L 25.66667,28.333333 26.333336,29 25.66667,29.666667 25.000003,30.333333 Z m -18,-8.5 V 20 h 0.5 0.5 v 0.5 0.5 h -0.5 -0.5 z m -1,-7.940983 V 11.118034 L 6.9067442,10.557637 7.8134855,9.9972407 7.2901129,11.99862 6.7667403,14 H 6.3833716 6.000003 Z M 29.07895,12.416667 29.157898,10.5 l 0.525219,1.3125 0.525219,1.3125 -0.604166,0.604167 -0.604167,0.604166 z M 6.3333363,1.3333338 7.000003,0.66666717 7.6666697,1.3333338 8.3333363,2.0000005 H 7.000003 5.6666697 Z m 8.9304167,-0.050914 2.763749,-0.41791707 2.236251,0.43156707 2.23625,0.4315671 -5,-0.01365 -5,-0.01365 z m 13.069583,0.050914 0.666667,-0.66666663 0.666667,0.66666663 0.666666,0.6666667 H 29.000003 27.66667 Z"
     fill="#151631"
     class="dynamic-color"/>
</svg>
